<svg version="1.1" id="Layer_1" xmlns="http://www.w3.org/2000/svg" xmlns:xlink="http://www.w3.org/1999/xlink" x="0px" y="0px"
	 width="100%" viewBox="0 0 309 163" enable-background="new 0 0 309 163" xml:space="preserve">
<path fill="#7EB599" opacity="1.000000" stroke="none" 
	d="
M1.000000,17.000000 
	C1.000000,13.638146 1.000000,10.276293 1.390319,6.462389 
	C3.070841,6.290884 4.461501,6.351429 5.635108,6.887319 
	C13.877664,10.651024 22.075893,14.511824 30.285915,18.346672 
	C30.585873,18.486782 30.852976,18.695906 31.149210,18.845503 
	C40.986038,23.813025 50.823452,28.779394 60.664696,33.738159 
	C61.551750,34.185123 62.466293,34.577347 63.366096,34.999210 
	C69.926109,38.074841 76.443115,41.246891 83.059464,44.196110 
	C87.881348,46.345448 93.008942,47.858952 97.695213,50.253017 
	C111.080017,57.090881 124.264664,64.319565 137.618774,71.218903 
	C144.024841,74.528564 150.658386,77.395119 157.147263,80.548050 
	C163.700684,83.732338 170.142242,87.152168 176.745163,90.227608 
	C182.562881,92.937325 188.505356,95.388565 194.450928,97.811111 
	C198.259354,99.362862 202.656479,99.949394 205.946564,102.200775 
	C214.664536,108.166374 223.758820,112.789833 234.086914,115.466797 
	C238.047028,116.493233 241.036453,120.815727 244.846909,122.964836 
	C252.069427,127.038345 259.537628,130.682343 266.954285,134.404099 
	C277.645355,139.768982 288.357208,145.093811 299.112061,150.329285 
	C302.658783,152.055832 306.366119,153.452499 310.000000,155.000000 
	C310.000000,157.897476 310.000000,160.794937 310.000000,164.000000 
	C308.337189,164.000000 306.666382,164.000000 304.415894,163.651215 
	C303.328033,162.677643 302.948425,161.795929 302.291962,161.467331 
	C294.883423,157.758942 287.412140,154.175949 279.996399,150.481689 
	C255.234177,138.146027 230.674988,125.381790 205.660843,113.581268 
	C191.979034,107.126823 178.734268,99.515205 164.007812,95.380127 
	C162.926254,95.076447 162.022690,94.182693 160.990479,93.652618 
	C152.627838,89.358223 144.266205,85.061485 135.877640,80.818115 
	C132.809799,79.266243 129.575562,78.024849 126.583427,76.345688 
	C120.952965,73.185951 115.801910,68.607231 109.796242,66.817940 
	C101.533852,64.356285 94.433159,59.908024 86.767120,56.454758 
	C79.513916,53.187458 71.907524,50.696976 64.688988,47.361626 
	C54.501125,42.654293 44.498894,37.540127 34.472717,32.489887 
	C28.548893,29.506029 22.242998,26.959852 17.008348,23.021410 
	C12.052773,19.292938 6.848639,17.639673 1.000000,17.000000 
z"/>
<path fill="#6DBF96" opacity="1.000000" stroke="none" 
	d="
M1.000000,34.000000 
	C1.000000,31.299986 1.000000,28.599974 1.389543,25.455425 
	C3.813427,25.666012 5.922566,26.151304 7.868044,27.008183 
	C13.637855,29.549469 19.355225,32.211391 25.067678,34.880550 
	C27.317257,35.931671 29.504419,37.117371 31.711601,38.258049 
	C39.228817,42.142956 46.717472,46.084217 54.269588,49.899948 
	C57.225216,51.393291 60.385006,52.483120 63.337646,53.981678 
	C69.095901,56.904171 74.661331,60.227013 80.510551,62.945213 
	C89.844078,67.282616 99.347641,71.253700 108.772560,75.395042 
	C114.504501,77.913681 120.224525,80.459450 125.947914,82.997505 
	C126.849579,83.397354 127.817863,83.706619 128.624893,84.251129 
	C137.583084,90.295311 146.785904,95.843269 157.287521,98.862946 
	C158.389008,99.179680 159.478851,99.609009 160.495560,100.137253 
	C169.424194,104.776367 178.276031,109.568588 187.286209,114.042351 
	C190.073441,115.426270 193.423203,115.653564 196.263321,116.958916 
	C205.589249,121.245193 214.952515,125.494576 224.014725,130.298920 
	C234.996567,136.120941 245.451630,142.744476 257.255066,147.193832 
	C267.578644,151.085373 277.055756,157.227280 286.878784,162.428055 
	C287.387390,162.697311 287.632324,163.464584 288.000000,164.000000 
	C280.645752,164.000000 273.291504,164.000000 265.363342,163.667419 
	C261.636780,161.624130 258.515594,159.852188 255.326065,158.213287 
	C241.325516,151.019196 227.308273,143.857574 213.283325,136.711136 
	C212.555206,136.340103 211.668884,136.291702 210.909348,135.968292 
	C202.559494,132.412994 193.999435,129.266434 185.930099,125.157303 
	C174.001205,119.082764 162.516983,112.141113 150.668518,105.900764 
	C139.351395,99.940262 127.874680,94.270958 116.343147,88.733917 
	C109.790215,85.587433 102.997124,82.937981 96.290413,80.116440 
	C93.864319,79.095779 91.259277,78.448753 88.936348,77.244545 
	C82.586113,73.952591 76.423309,70.295143 70.041603,67.068596 
	C50.918224,57.399940 31.756290,47.805954 12.533564,38.336784 
	C8.866726,36.530483 4.853443,35.427483 1.000000,34.000000 
z"/>
<path fill="#4DD290" opacity="1.000000" stroke="none" 
	d="
M212.000000,164.000000 
	C203.979095,164.000000 195.958191,164.000000 187.343796,163.659698 
	C185.150787,162.571609 183.592529,161.713242 181.943634,161.097717 
	C177.798889,159.550552 173.461487,158.433426 169.482956,156.549210 
	C164.689804,154.279221 160.281082,151.209167 155.536621,148.821930 
	C149.038071,145.552124 142.345779,142.669952 135.798096,139.494705 
	C123.577545,133.568451 111.484871,127.371681 99.178879,121.630676 
	C90.179573,117.432289 80.797119,114.050446 71.828751,109.792221 
	C66.158775,107.100082 61.086769,103.167366 55.472782,100.333420 
	C49.273647,97.204109 42.698093,94.830505 36.399601,91.885818 
	C24.556812,86.349022 12.795305,80.638367 1.000000,75.000000 
	C1.000000,70.975456 1.000000,66.950912 1.369140,62.532867 
	C8.245189,64.970200 14.799056,67.698669 21.247522,70.656891 
	C29.969749,74.658173 38.705597,78.649704 47.258675,82.993774 
	C54.783356,86.815514 61.880142,91.506386 69.498146,95.111320 
	C80.099152,100.127838 91.106712,104.279358 101.764740,109.182640 
	C116.332291,115.884529 130.822418,122.768806 145.182831,129.902802 
	C158.821838,136.678421 172.172211,144.034592 185.803497,150.826431 
	C193.478256,154.650391 201.485825,157.802704 209.284973,161.384918 
	C210.362946,161.880035 211.103317,163.110153 212.000000,164.000000 
z"/>
<path fill="#86B09A" opacity="1.000000" stroke="none" 
	d="
M310.000000,154.541931 
	C306.366119,153.452499 302.658783,152.055832 299.112061,150.329285 
	C288.357208,145.093811 277.645355,139.768982 266.954285,134.404099 
	C259.537628,130.682343 252.069427,127.038345 244.846909,122.964836 
	C241.036453,120.815727 238.047028,116.493233 234.086914,115.466797 
	C223.758820,112.789833 214.664536,108.166374 205.946564,102.200775 
	C202.656479,99.949394 198.259354,99.362862 194.450928,97.811111 
	C188.505356,95.388565 182.562881,92.937325 176.745163,90.227608 
	C170.142242,87.152168 163.700684,83.732338 157.147263,80.548050 
	C150.658386,77.395119 144.024841,74.528564 137.618774,71.218903 
	C124.264664,64.319565 111.080017,57.090881 97.695213,50.253017 
	C93.008942,47.858952 87.881348,46.345448 83.059464,44.196110 
	C76.443115,41.246891 69.926109,38.074841 63.366096,34.999210 
	C62.466293,34.577347 61.551750,34.185123 60.664696,33.738159 
	C50.823452,28.779394 40.986038,23.813025 31.149210,18.845503 
	C30.852976,18.695906 30.585873,18.486782 30.285915,18.346672 
	C22.075893,14.511824 13.877664,10.651024 5.635108,6.887319 
	C4.461501,6.351429 3.070841,6.290884 1.390319,6.005169 
	C1.000000,4.379631 1.000000,2.759263 1.000000,1.000000 
	C4.679894,1.000000 8.360771,1.000000 12.590101,1.338647 
	C14.525222,3.293238 15.610396,5.438581 17.352369,6.430640 
	C23.823238,10.115818 30.365431,13.743884 37.151051,16.791828 
	C46.621769,21.045856 56.369694,24.678019 65.935356,28.726645 
	C77.154221,33.474976 88.304726,38.384815 99.485161,43.223946 
	C100.705185,43.751999 101.956589,44.216732 103.143456,44.810726 
	C113.189903,49.838749 123.180328,54.981159 133.279419,59.900661 
	C139.513397,62.937370 146.212036,65.123932 152.169495,68.603897 
	C166.673218,77.076035 181.895172,83.908104 197.481125,90.041618 
	C199.774017,90.943939 201.852005,92.384163 204.053589,93.529045 
	C206.252548,94.672554 208.464600,95.793877 210.701401,96.860992 
	C215.561249,99.179466 220.492966,101.353317 225.298340,103.778404 
	C231.055206,106.683662 236.664429,109.881821 242.424774,112.779793 
	C247.378403,115.271912 252.503616,117.422386 257.463837,119.902184 
	C263.248657,122.794243 268.892029,125.969521 274.680634,128.853592 
	C279.401672,131.205780 284.179047,133.472595 289.051880,135.485779 
	C296.017334,138.363541 301.742157,144.315750 310.000000,144.000000 
	C310.000000,147.361282 310.000000,150.722580 310.000000,154.541931 
z"/>
<path fill="#66C396" opacity="1.000000" stroke="none" 
	d="
M1.000000,34.460636 
	C4.853443,35.427483 8.866726,36.530483 12.533564,38.336784 
	C31.756290,47.805954 50.918224,57.399940 70.041603,67.068596 
	C76.423309,70.295143 82.586113,73.952591 88.936348,77.244545 
	C91.259277,78.448753 93.864319,79.095779 96.290413,80.116440 
	C102.997124,82.937981 109.790215,85.587433 116.343147,88.733917 
	C127.874680,94.270958 139.351395,99.940262 150.668518,105.900764 
	C162.516983,112.141113 174.001205,119.082764 185.930099,125.157303 
	C193.999435,129.266434 202.559494,132.412994 210.909348,135.968292 
	C211.668884,136.291702 212.555206,136.340103 213.283325,136.711136 
	C227.308273,143.857574 241.325516,151.019196 255.326065,158.213287 
	C258.515594,159.852188 261.636780,161.624130 264.894714,163.667419 
	C259.645081,164.000000 254.290146,164.000000 248.348312,163.666962 
	C246.006393,162.521912 244.232895,161.747314 242.499710,160.891068 
	C236.740646,158.045898 230.063858,156.188126 225.513596,152.016190 
	C221.144791,148.010620 216.786270,145.918625 211.283371,144.946686 
	C207.073700,144.203171 202.700806,143.501816 198.867172,141.756607 
	C194.950912,139.973785 191.831268,136.484985 187.959061,134.552032 
	C180.414764,130.785995 172.523987,127.719887 164.910431,124.083900 
	C161.823761,122.609802 159.247131,120.066589 156.159042,118.596840 
	C148.390335,114.899376 140.358521,111.749283 132.629150,107.976227 
	C125.532188,104.511856 118.780838,100.342896 111.708351,96.823715 
	C106.985481,94.473663 101.950851,92.755692 97.084129,90.688026 
	C88.259148,86.938660 79.448158,83.156067 70.650337,79.343468 
	C69.298782,78.757767 68.061905,77.912498 66.749451,77.230659 
	C58.295689,72.838745 49.853088,68.424683 41.365036,64.099892 
	C39.322201,63.059040 36.775585,62.760544 35.050980,61.382080 
	C24.985224,53.336613 13.585739,48.391708 1.000000,46.000000 
	C1.000000,42.307091 1.000000,38.614182 1.000000,34.460636 
z"/>
<path fill="#C58BA8" opacity="1.000000" stroke="none" 
	d="
M310.000000,67.000000 
	C310.000000,71.356903 310.000000,75.713799 309.602417,80.533905 
	C307.368805,80.407784 305.447723,80.001083 303.713287,79.193527 
	C299.222443,77.102547 294.849609,74.758438 290.363251,72.657242 
	C284.828247,70.064919 279.162781,67.745613 273.673126,65.063782 
	C269.353180,62.953365 265.283142,60.334579 260.980804,58.184238 
	C251.815338,53.603260 242.584518,49.152016 233.355011,44.700443 
	C225.146713,40.741425 216.906067,36.849396 208.675812,32.936016 
	C203.465790,30.458721 198.223267,28.048300 193.041977,25.512527 
	C188.146698,23.116726 183.531128,19.235369 178.406128,18.411707 
	C167.465332,16.653362 159.128006,9.825857 149.535873,5.524235 
	C147.991531,4.831669 147.160675,2.548106 146.000000,1.000001 
	C155.354233,1.000000 164.708450,1.000000 174.609100,1.343095 
	C175.798843,2.396405 176.306412,3.386698 177.106110,3.774364 
	C187.337006,8.733994 197.613388,13.599690 207.866196,18.514349 
	C208.908768,19.014103 209.839600,19.745697 210.879303,20.252808 
	C220.195496,24.796722 228.281128,31.871189 238.857971,33.844181 
	C239.794418,34.018871 240.661911,34.644855 241.522964,35.129604 
	C250.987167,40.457657 259.628143,47.397457 270.598358,49.784050 
	C271.978027,50.084190 273.129120,51.309933 274.479706,51.888325 
	C286.307709,56.953762 298.157013,61.969517 310.000000,67.000000 
z"/>
<path fill="#9AA59F" opacity="1.000000" stroke="none" 
	d="
M47.000000,1.000000 
	C52.022091,1.000000 57.044186,1.000000 62.602547,1.340021 
	C65.154663,3.528093 66.887978,5.925793 69.233917,7.131667 
	C81.137070,13.250193 94.160576,16.597954 105.888824,23.564383 
	C120.678131,32.349041 136.735992,38.992352 152.214951,46.623627 
	C162.920670,51.901649 173.485489,57.474709 184.290115,62.538574 
	C188.897507,64.697937 194.187607,65.414482 198.764740,67.621819 
	C211.158188,73.598564 223.360565,79.974876 235.591064,86.285088 
	C244.866882,91.070847 254.073090,95.991684 263.302582,100.866966 
	C266.230316,102.413475 269.064545,104.154945 272.062408,105.546852 
	C277.695435,108.162224 283.383484,110.666992 289.113831,113.061691 
	C292.310364,114.397507 295.767975,115.150543 298.873718,116.650970 
	C302.709656,118.504135 306.302246,120.860863 310.000000,123.000000 
	C310.000000,124.388893 310.000000,125.777779 309.612305,127.578995 
	C307.809143,127.592079 306.286072,127.406250 304.997070,126.756256 
	C299.721924,124.096222 294.598419,121.126427 289.269318,118.584587 
	C281.359406,114.811752 273.230652,111.491936 265.369385,107.624825 
	C259.270630,104.624718 253.543564,100.871986 247.459686,97.838005 
	C240.812027,94.522873 233.896698,91.748558 227.192169,88.541718 
	C223.921677,86.977409 221.058578,84.375702 217.675674,83.266563 
	C207.171082,79.822472 196.502213,76.880440 185.909286,73.702896 
	C184.971848,73.421684 183.812164,73.076599 183.282303,72.367630 
	C178.746552,66.298409 171.601639,65.144753 165.209274,62.571171 
	C164.131958,62.137444 162.979752,61.822956 161.998108,61.228741 
	C152.375626,55.403992 142.873657,49.354935 131.950684,46.105652 
	C131.018814,45.828445 130.175934,45.231354 129.313705,44.743950 
	C120.261177,39.626652 111.677376,33.594265 101.514687,30.649406 
	C100.099251,30.239252 98.785309,29.470716 97.435036,28.845100 
	C89.318542,25.084518 81.231964,21.257488 73.070938,17.596308 
	C71.151688,16.735296 68.829453,16.736996 66.961891,15.803234 
	C62.078285,13.361482 57.128765,10.936705 52.637543,7.872042 
	C50.288876,6.269387 48.849854,3.333661 47.000000,1.000000 
z"/>
<path fill="#A0A1A1" opacity="1.000000" stroke="none" 
	d="
M310.000000,122.545891 
	C306.302246,120.860863 302.709656,118.504135 298.873718,116.650970 
	C295.767975,115.150543 292.310364,114.397507 289.113831,113.061691 
	C283.383484,110.666992 277.695435,108.162224 272.062408,105.546852 
	C269.064545,104.154945 266.230316,102.413475 263.302582,100.866966 
	C254.073090,95.991684 244.866882,91.070847 235.591064,86.285088 
	C223.360565,79.974876 211.158188,73.598564 198.764740,67.621819 
	C194.187607,65.414482 188.897507,64.697937 184.290115,62.538574 
	C173.485489,57.474709 162.920670,51.901649 152.214951,46.623627 
	C136.735992,38.992352 120.678131,32.349041 105.888824,23.564383 
	C94.160576,16.597954 81.137070,13.250193 69.233917,7.131667 
	C66.887978,5.925793 65.154663,3.528093 63.069408,1.340021 
	C70.020950,1.000000 77.041893,1.000000 84.600708,1.340098 
	C86.308640,3.038267 87.225914,4.839244 88.693138,5.676632 
	C94.592773,9.043722 100.591583,12.256569 106.684319,15.261676 
	C118.999596,21.335903 131.526321,26.992567 143.727417,33.283840 
	C154.523605,38.850708 163.704819,47.584236 176.250427,49.722736 
	C176.865906,49.827652 177.390854,50.392868 177.989594,50.677135 
	C187.865448,55.365990 197.752243,60.031876 207.623917,64.729507 
	C213.149612,67.359016 218.692047,69.958221 224.153183,72.717041 
	C228.986130,75.158516 233.673080,77.888817 238.504074,80.334396 
	C244.542480,83.391212 250.714523,86.186058 256.728058,89.289352 
	C260.538696,91.255836 264.022614,93.887642 267.902405,95.681885 
	C278.576111,100.618050 289.344177,105.356758 300.157593,109.980263 
	C303.295166,111.321815 306.711456,112.011497 310.000000,113.000000 
	C310.000000,116.030594 310.000000,119.061188 310.000000,122.545891 
z"/>
<path fill="#A89DA2" opacity="1.000000" stroke="none" 
	d="
M310.000000,112.550018 
	C306.711456,112.011497 303.295166,111.321815 300.157593,109.980263 
	C289.344177,105.356758 278.576111,100.618050 267.902405,95.681885 
	C264.022614,93.887642 260.538696,91.255836 256.728058,89.289352 
	C250.714523,86.186058 244.542480,83.391212 238.504074,80.334396 
	C233.673080,77.888817 228.986130,75.158516 224.153183,72.717041 
	C218.692047,69.958221 213.149612,67.359016 207.623917,64.729507 
	C197.752243,60.031876 187.865448,55.365990 177.989594,50.677135 
	C177.390854,50.392868 176.865906,49.827652 176.250427,49.722736 
	C163.704819,47.584236 154.523605,38.850708 143.727417,33.283840 
	C131.526321,26.992567 118.999596,21.335903 106.684319,15.261676 
	C100.591583,12.256569 94.592773,9.043722 88.693138,5.676632 
	C87.225914,4.839244 86.308640,3.038267 85.069290,1.340098 
	C89.689255,1.000000 94.378510,1.000000 99.606850,1.337244 
	C105.260902,5.185270 110.090492,9.241656 115.548561,12.096478 
	C127.998672,18.608458 140.734268,24.578463 153.404480,30.663296 
	C156.840195,32.313286 160.516098,33.458347 163.978119,35.059269 
	C173.114594,39.284218 182.197205,43.625813 191.295700,47.932720 
	C201.477203,52.752296 211.759109,57.374413 221.805710,62.460938 
	C236.897308,70.101730 251.746658,78.221405 266.845551,85.847282 
	C276.257019,90.600647 285.136902,96.568153 295.944275,98.313629 
	C299.219238,98.842560 302.158112,101.301025 305.327484,102.702713 
	C306.790131,103.349602 308.436768,103.580490 310.000000,104.000000 
	C310.000000,106.700012 310.000000,109.400032 310.000000,112.550018 
z"/>
<path fill="#92A99E" opacity="1.000000" stroke="none" 
	d="
M46.536816,1.000000 
	C48.849854,3.333661 50.288876,6.269387 52.637543,7.872042 
	C57.128765,10.936705 62.078285,13.361482 66.961891,15.803234 
	C68.829453,16.736996 71.151688,16.735296 73.070938,17.596308 
	C81.231964,21.257488 89.318542,25.084518 97.435036,28.845100 
	C98.785309,29.470716 100.099251,30.239252 101.514687,30.649406 
	C111.677376,33.594265 120.261177,39.626652 129.313705,44.743950 
	C130.175934,45.231354 131.018814,45.828445 131.950684,46.105652 
	C142.873657,49.354935 152.375626,55.403992 161.998108,61.228741 
	C162.979752,61.822956 164.131958,62.137444 165.209274,62.571171 
	C171.601639,65.144753 178.746552,66.298409 183.282303,72.367630 
	C183.812164,73.076599 184.971848,73.421684 185.909286,73.702896 
	C196.502213,76.880440 207.171082,79.822472 217.675674,83.266563 
	C221.058578,84.375702 223.921677,86.977409 227.192169,88.541718 
	C233.896698,91.748558 240.812027,94.522873 247.459686,97.838005 
	C253.543564,100.871986 259.270630,104.624718 265.369385,107.624825 
	C273.230652,111.491936 281.359406,114.811752 289.269318,118.584587 
	C294.598419,121.126427 299.721924,124.096222 304.997070,126.756256 
	C306.286072,127.406250 307.809143,127.592079 309.612305,127.995659 
	C310.000000,130.041672 310.000000,132.083328 309.593262,134.561432 
	C307.106049,134.507477 304.870270,134.352921 302.969604,133.473831 
	C287.169861,126.166130 271.319794,118.952164 255.709534,111.254387 
	C242.345139,104.664070 229.415329,97.189682 216.026779,90.652176 
	C207.759354,86.615265 198.996201,83.592125 190.447784,80.133163 
	C188.321320,79.272728 186.072937,78.668289 184.036499,77.638016 
	C169.263992,70.164391 154.565048,62.544819 139.769958,55.116581 
	C133.704559,52.071297 127.423103,49.459560 121.302406,46.520493 
	C107.733101,40.004707 94.193649,33.426464 80.660027,26.836718 
	C66.149460,19.771275 51.624664,12.732613 37.214138,5.467908 
	C35.761215,4.735453 35.053532,2.524704 34.000000,1.000000 
	C38.024544,1.000000 42.049088,1.000000 46.536816,1.000000 
z"/>
<path fill="#5CC991" opacity="1.000000" stroke="none" 
	d="
M1.000000,46.399994 
	C13.585739,48.391708 24.985224,53.336613 35.050980,61.382080 
	C36.775585,62.760544 39.322201,63.059040 41.365036,64.099892 
	C49.853088,68.424683 58.295689,72.838745 66.749451,77.230659 
	C68.061905,77.912498 69.298782,78.757767 70.650337,79.343468 
	C79.448158,83.156067 88.259148,86.938660 97.084129,90.688026 
	C101.950851,92.755692 106.985481,94.473663 111.708351,96.823715 
	C118.780838,100.342896 125.532188,104.511856 132.629150,107.976227 
	C140.358521,111.749283 148.390335,114.899376 156.159042,118.596840 
	C159.247131,120.066589 161.823761,122.609802 164.910431,124.083900 
	C172.523987,127.719887 180.414764,130.785995 187.959061,134.552032 
	C191.831268,136.484985 194.950912,139.973785 198.867172,141.756607 
	C202.700806,143.501816 207.073700,144.203171 211.283371,144.946686 
	C216.786270,145.918625 221.144791,148.010620 225.513596,152.016190 
	C230.063858,156.188126 236.740646,158.045898 242.499710,160.891068 
	C244.232895,161.747314 246.006393,162.521912 247.880707,163.666962 
	C242.311966,164.000000 236.623917,164.000000 230.358810,163.678238 
	C223.747467,159.925049 217.885147,156.134521 211.639725,153.144089 
	C201.607285,148.340393 191.239029,144.240784 181.174927,139.499298 
	C175.478439,136.815536 170.178391,133.303665 164.572678,130.411133 
	C149.813904,122.795654 135.005692,115.275093 120.176422,107.797546 
	C112.936707,104.146980 105.678719,100.515015 98.285408,97.194313 
	C94.716095,95.591148 90.247566,95.539993 87.162209,93.387253 
	C73.816063,84.075279 57.163540,81.771057 44.011406,71.504112 
	C34.795471,64.309891 22.972261,60.443249 12.278451,55.161381 
	C8.573134,53.331253 4.762518,51.714317 1.000000,50.000000 
	C1.000000,48.933331 1.000000,47.866661 1.000000,46.399994 
z"/>
<path fill="#D086AB" opacity="1.000000" stroke="none" 
	d="
M310.000000,66.539368 
	C298.157013,61.969517 286.307709,56.953762 274.479706,51.888325 
	C273.129120,51.309933 271.978027,50.084190 270.598358,49.784050 
	C259.628143,47.397457 250.987167,40.457657 241.522964,35.129604 
	C240.661911,34.644855 239.794418,34.018871 238.857971,33.844181 
	C228.281128,31.871189 220.195496,24.796722 210.879303,20.252808 
	C209.839600,19.745697 208.908768,19.014103 207.866196,18.514349 
	C197.613388,13.599690 187.337006,8.733994 177.106110,3.774364 
	C176.306412,3.386698 175.798843,2.396405 175.077759,1.343095 
	C183.354233,1.000000 191.708466,1.000000 200.602692,1.342701 
	C201.568527,2.385678 201.831711,3.313250 202.444748,3.751919 
	C210.778702,9.715364 219.117752,15.587040 229.403168,18.000906 
	C232.697800,18.774117 235.727341,20.785789 238.796936,22.386587 
	C245.616928,25.943220 252.399277,29.572836 259.170502,33.221828 
	C264.059418,35.856453 268.826904,38.728287 273.793121,41.204292 
	C278.771667,43.686417 283.862000,45.977818 289.027313,48.042686 
	C294.509949,50.234428 300.126862,52.094810 305.711304,54.024223 
	C307.088806,54.500145 308.567719,54.682621 310.000000,55.000000 
	C310.000000,58.692909 310.000000,62.385818 310.000000,66.539368 
z"/>
<path fill="#78B998" opacity="1.000000" stroke="none" 
	d="
M1.000000,17.399996 
	C6.848639,17.639673 12.052773,19.292938 17.008348,23.021410 
	C22.242998,26.959852 28.548893,29.506029 34.472717,32.489887 
	C44.498894,37.540127 54.501125,42.654293 64.688988,47.361626 
	C71.907524,50.696976 79.513916,53.187458 86.767120,56.454758 
	C94.433159,59.908024 101.533852,64.356285 109.796242,66.817940 
	C115.801910,68.607231 120.952965,73.185951 126.583427,76.345688 
	C129.575562,78.024849 132.809799,79.266243 135.877640,80.818115 
	C144.266205,85.061485 152.627838,89.358223 160.990479,93.652618 
	C162.022690,94.182693 162.926254,95.076447 164.007812,95.380127 
	C178.734268,99.515205 191.979034,107.126823 205.660843,113.581268 
	C230.674988,125.381790 255.234177,138.146027 279.996399,150.481689 
	C287.412140,154.175949 294.883423,157.758942 302.291962,161.467331 
	C302.948425,161.795929 303.328033,162.677643 303.918091,163.651215 
	C301.299988,164.000000 298.599976,164.000000 295.336487,163.673477 
	C292.484589,162.091949 290.221466,160.787964 287.903595,159.590027 
	C274.539337,152.682938 261.144409,145.834885 247.801620,138.886688 
	C244.449921,137.141312 241.332245,134.943130 237.967178,133.227371 
	C227.374786,127.826607 216.743256,122.500504 206.066360,117.268990 
	C202.799057,115.668068 199.364044,114.393448 195.957550,113.096207 
	C190.128296,110.876358 184.033890,109.221977 178.455521,106.500595 
	C165.681625,100.268906 153.196716,93.447906 140.504272,87.044975 
	C134.142380,83.835602 127.562462,81.061134 121.117226,78.013664 
	C106.934799,71.307831 92.727371,64.652069 78.619591,57.791927 
	C63.765533,50.568897 49.029278,43.103989 34.214443,35.799747 
	C26.976078,32.230976 19.724161,28.681906 12.383895,25.330879 
	C8.698341,23.648323 4.801364,22.428879 1.000000,21.000000 
	C1.000000,19.933331 1.000000,18.866661 1.000000,17.399996 
z"/>
<path fill="#3DDB8D" opacity="1.000000" stroke="none" 
	d="
M166.000000,164.000000 
	C161.310745,164.000000 156.621490,164.000000 151.356995,163.678238 
	C148.021744,161.571930 145.390396,159.535019 142.477600,158.050201 
	C133.771744,153.612320 124.994621,149.308456 116.163605,145.124771 
	C112.599152,143.436157 108.768311,142.318497 105.153343,140.726151 
	C95.912582,136.655731 86.723175,132.468643 77.517090,128.319641 
	C74.053421,126.758621 69.946442,125.891243 67.274666,123.455208 
	C61.158527,117.878723 54.066444,114.789772 46.325840,112.497948 
	C42.549145,111.379753 38.216732,110.246246 35.533569,107.666138 
	C25.771561,98.279037 12.833974,96.465401 1.000000,92.000000 
	C1.000000,88.969406 1.000000,85.938812 1.387851,82.459030 
	C3.355061,82.455894 5.058047,82.658035 6.494469,83.386093 
	C19.503656,89.979874 32.454742,96.688141 45.446243,103.317017 
	C55.191067,108.289276 64.954559,113.225571 74.739578,118.118195 
	C81.700264,121.598625 88.624054,125.173851 95.727364,128.341049 
	C100.988403,130.686813 106.614380,132.209366 111.895119,134.516708 
	C120.676712,138.353729 129.449692,142.257919 137.967056,146.637939 
	C145.458054,150.490143 152.633713,154.966690 159.862549,159.310791 
	C162.055679,160.628723 163.962204,162.423584 166.000000,164.000000 
z"/>
<path fill="#44D78F" opacity="1.000000" stroke="none" 
	d="
M166.468536,164.000000 
	C163.962204,162.423584 162.055679,160.628723 159.862549,159.310791 
	C152.633713,154.966690 145.458054,150.490143 137.967056,146.637939 
	C129.449692,142.257919 120.676712,138.353729 111.895119,134.516708 
	C106.614380,132.209366 100.988403,130.686813 95.727364,128.341049 
	C88.624054,125.173851 81.700264,121.598625 74.739578,118.118195 
	C64.954559,113.225571 55.191067,108.289276 45.446243,103.317017 
	C32.454742,96.688141 19.503656,89.979874 6.494469,83.386093 
	C5.058047,82.658035 3.355061,82.455894 1.387851,82.004921 
	C1.000000,79.958336 1.000000,77.916664 1.000000,75.437500 
	C12.795305,80.638367 24.556812,86.349022 36.399601,91.885818 
	C42.698093,94.830505 49.273647,97.204109 55.472782,100.333420 
	C61.086769,103.167366 66.158775,107.100082 71.828751,109.792221 
	C80.797119,114.050446 90.179573,117.432289 99.178879,121.630676 
	C111.484871,127.371681 123.577545,133.568451 135.798096,139.494705 
	C142.345779,142.669952 149.038071,145.552124 155.536621,148.821930 
	C160.281082,151.209167 164.689804,154.279221 169.482956,156.549210 
	C173.461487,158.433426 177.798889,159.550552 181.943634,161.097717 
	C183.592529,161.713242 185.150787,162.571609 186.875153,163.659698 
	C180.312363,164.000000 173.624710,164.000000 166.468536,164.000000 
z"/>
<path fill="#8FAB9D" opacity="1.000000" stroke="none" 
	d="
M33.562500,1.000000 
	C35.053532,2.524704 35.761215,4.735453 37.214138,5.467908 
	C51.624664,12.732613 66.149460,19.771275 80.660027,26.836718 
	C94.193649,33.426464 107.733101,40.004707 121.302406,46.520493 
	C127.423103,49.459560 133.704559,52.071297 139.769958,55.116581 
	C154.565048,62.544819 169.263992,70.164391 184.036499,77.638016 
	C186.072937,78.668289 188.321320,79.272728 190.447784,80.133163 
	C198.996201,83.592125 207.759354,86.615265 216.026779,90.652176 
	C229.415329,97.189682 242.345139,104.664070 255.709534,111.254387 
	C271.319794,118.952164 287.169861,126.166130 302.969604,133.473831 
	C304.870270,134.352921 307.106049,134.507477 309.593262,134.998932 
	C310.000000,136.388885 310.000000,137.777786 309.592529,139.582260 
	C308.028595,139.887985 306.747589,140.064529 305.734863,139.624146 
	C295.110565,135.004013 284.413239,130.527176 273.969635,125.523361 
	C264.154694,120.820755 255.645798,113.501297 244.706390,110.982712 
	C243.155853,110.625732 241.790817,109.431381 240.360413,108.589760 
	C234.361069,105.059792 228.527786,101.204597 222.332901,98.061325 
	C215.412140,94.549744 208.211380,91.571495 201.048615,88.560623 
	C193.701797,85.472389 186.031387,83.077026 178.900955,79.568748 
	C167.707565,74.061417 158.146942,65.299606 145.397781,62.843365 
	C144.487732,62.668034 143.773483,61.641991 142.860916,61.288364 
	C134.237823,57.946835 127.913857,50.702114 118.465775,48.261803 
	C111.323013,46.416927 104.999367,41.403500 98.308266,37.805664 
	C95.728386,36.418453 93.255661,34.733185 90.532684,33.731052 
	C84.487030,31.506073 78.124657,30.062204 72.239250,27.500658 
	C64.226540,24.013231 56.535671,19.785543 48.711975,15.864937 
	C44.107780,13.557685 39.274368,11.595190 34.995728,8.788968 
	C31.941469,6.785779 29.638315,3.637378 27.000000,1.000000 
	C29.041666,1.000000 31.083334,1.000000 33.562500,1.000000 
z"/>
<path fill="#0EF782" opacity="1.000000" stroke="none" 
	d="
M65.000000,164.000000 
	C43.761379,164.000000 22.522757,164.000000 1.000000,164.000000 
	C1.000000,152.647354 1.000000,141.292328 1.382369,129.492905 
	C6.431461,131.140915 11.679201,132.475403 15.628872,135.503204 
	C21.567446,140.055710 27.830404,143.250809 34.962360,145.351852 
	C39.356750,146.646439 43.512726,148.955200 47.545986,151.218124 
	C52.429310,153.957993 57.134918,157.034424 61.774757,160.175919 
	C63.103687,161.075699 63.938580,162.705124 65.000000,164.000000 
z"/>
<path fill="#8CAD9C" opacity="1.000000" stroke="none" 
	d="
M26.535347,1.000000 
	C29.638315,3.637378 31.941469,6.785779 34.995728,8.788968 
	C39.274368,11.595190 44.107780,13.557685 48.711975,15.864937 
	C56.535671,19.785543 64.226540,24.013231 72.239250,27.500658 
	C78.124657,30.062204 84.487030,31.506073 90.532684,33.731052 
	C93.255661,34.733185 95.728386,36.418453 98.308266,37.805664 
	C104.999367,41.403500 111.323013,46.416927 118.465775,48.261803 
	C127.913857,50.702114 134.237823,57.946835 142.860916,61.288364 
	C143.773483,61.641991 144.487732,62.668034 145.397781,62.843365 
	C158.146942,65.299606 167.707565,74.061417 178.900955,79.568748 
	C186.031387,83.077026 193.701797,85.472389 201.048615,88.560623 
	C208.211380,91.571495 215.412140,94.549744 222.332901,98.061325 
	C228.527786,101.204597 234.361069,105.059792 240.360413,108.589760 
	C241.790817,109.431381 243.155853,110.625732 244.706390,110.982712 
	C255.645798,113.501297 264.154694,120.820755 273.969635,125.523361 
	C284.413239,130.527176 295.110565,135.004013 305.734863,139.624146 
	C306.747589,140.064529 308.028595,139.887985 309.592529,139.998932 
	C310.000000,141.066666 310.000000,142.133347 310.000000,143.600006 
	C301.742157,144.315750 296.017334,138.363541 289.051880,135.485779 
	C284.179047,133.472595 279.401672,131.205780 274.680634,128.853592 
	C268.892029,125.969521 263.248657,122.794243 257.463837,119.902184 
	C252.503616,117.422386 247.378403,115.271912 242.424774,112.779793 
	C236.664429,109.881821 231.055206,106.683662 225.298340,103.778404 
	C220.492966,101.353317 215.561249,99.179466 210.701401,96.860992 
	C208.464600,95.793877 206.252548,94.672554 204.053589,93.529045 
	C201.852005,92.384163 199.774017,90.943939 197.481125,90.041618 
	C181.895172,83.908104 166.673218,77.076035 152.169495,68.603897 
	C146.212036,65.123932 139.513397,62.937370 133.279419,59.900661 
	C123.180328,54.981159 113.189903,49.838749 103.143456,44.810726 
	C101.956589,44.216732 100.705185,43.751999 99.485161,43.223946 
	C88.304726,38.384815 77.154221,33.474976 65.935356,28.726645 
	C56.369694,24.678019 46.621769,21.045856 37.151051,16.791828 
	C30.365431,13.743884 23.823238,10.115818 17.352369,6.430640 
	C15.610396,5.438581 14.525222,3.293238 13.069277,1.338647 
	C17.356899,1.000000 21.713799,1.000000 26.535347,1.000000 
z"/>
<path fill="#58CB91" opacity="1.000000" stroke="none" 
	d="
M1.000000,50.437500 
	C4.762518,51.714317 8.573134,53.331253 12.278451,55.161381 
	C22.972261,60.443249 34.795471,64.309891 44.011406,71.504112 
	C57.163540,81.771057 73.816063,84.075279 87.162209,93.387253 
	C90.247566,95.539993 94.716095,95.591148 98.285408,97.194313 
	C105.678719,100.515015 112.936707,104.146980 120.176422,107.797546 
	C135.005692,115.275093 149.813904,122.795654 164.572678,130.411133 
	C170.178391,133.303665 175.478439,136.815536 181.174927,139.499298 
	C191.239029,144.240784 201.607285,148.340393 211.639725,153.144089 
	C217.885147,156.134521 223.747467,159.925049 229.890869,163.678238 
	C227.629440,164.000000 225.258896,164.000000 222.331573,163.673981 
	C220.537598,162.575516 219.363861,161.668228 218.053467,161.051163 
	C202.199982,153.585938 186.328323,146.159286 170.457108,138.731781 
	C162.508926,135.012161 154.449982,131.513199 146.621155,127.558113 
	C132.296555,120.321396 118.237816,112.549088 103.817200,105.514709 
	C92.218262,99.856758 80.180916,95.104851 68.465775,89.675453 
	C59.451527,85.497780 50.624542,80.914276 41.734474,76.470848 
	C29.275394,70.243538 16.843895,63.960949 4.370025,57.763546 
	C3.367660,57.265533 2.128904,57.243320 1.000000,57.000000 
	C1.000000,54.958332 1.000000,52.916668 1.000000,50.437500 
z"/>
<path fill="#BD90A7" opacity="1.000000" stroke="none" 
	d="
M145.555832,1.000001 
	C147.160675,2.548106 147.991531,4.831669 149.535873,5.524235 
	C159.128006,9.825857 167.465332,16.653362 178.406128,18.411707 
	C183.531128,19.235369 188.146698,23.116726 193.041977,25.512527 
	C198.223267,28.048300 203.465790,30.458721 208.675812,32.936016 
	C216.906067,36.849396 225.146713,40.741425 233.355011,44.700443 
	C242.584518,49.152016 251.815338,53.603260 260.980804,58.184238 
	C265.283142,60.334579 269.353180,62.953365 273.673126,65.063782 
	C279.162781,67.745613 284.828247,70.064919 290.363251,72.657242 
	C294.849609,74.758438 299.222443,77.102547 303.713287,79.193527 
	C305.447723,80.001083 307.368805,80.407784 309.602417,80.998550 
	C310.000000,83.041664 310.000000,85.083336 309.628845,87.542450 
	C306.314117,86.514542 303.458862,84.838852 300.409454,83.669556 
	C293.014191,80.833847 285.436707,78.457008 278.118256,75.444336 
	C274.478699,73.946106 271.374237,71.195602 267.809662,69.459351 
	C252.178452,61.845684 236.379898,54.571957 220.813721,46.829723 
	C208.673935,40.791691 196.860168,34.101044 184.766876,27.965822 
	C173.239655,22.117783 161.375763,16.915840 149.994339,10.806758 
	C145.528320,8.409575 141.971100,4.319248 138.000000,1.000002 
	C140.370560,1.000000 142.741104,1.000000 145.555832,1.000001 
z"/>
<path fill="#74BC98" opacity="1.000000" stroke="none" 
	d="
M1.000000,21.399996 
	C4.801364,22.428879 8.698341,23.648323 12.383895,25.330879 
	C19.724161,28.681906 26.976078,32.230976 34.214443,35.799747 
	C49.029278,43.103989 63.765533,50.568897 78.619591,57.791927 
	C92.727371,64.652069 106.934799,71.307831 121.117226,78.013664 
	C127.562462,81.061134 134.142380,83.835602 140.504272,87.044975 
	C153.196716,93.447906 165.681625,100.268906 178.455521,106.500595 
	C184.033890,109.221977 190.128296,110.876358 195.957550,113.096207 
	C199.364044,114.393448 202.799057,115.668068 206.066360,117.268990 
	C216.743256,122.500504 227.374786,127.826607 237.967178,133.227371 
	C241.332245,134.943130 244.449921,137.141312 247.801620,138.886688 
	C261.144409,145.834885 274.539337,152.682938 287.903595,159.590027 
	C290.221466,160.787964 292.484589,162.091949 294.886475,163.673477 
	C292.958344,164.000000 290.916656,164.000000 288.437500,164.000000 
	C287.632324,163.464584 287.387390,162.697311 286.878784,162.428055 
	C277.055756,157.227280 267.578644,151.085373 257.255066,147.193832 
	C245.451630,142.744476 234.996567,136.120941 224.014725,130.298920 
	C214.952515,125.494576 205.589249,121.245193 196.263321,116.958916 
	C193.423203,115.653564 190.073441,115.426270 187.286209,114.042351 
	C178.276031,109.568588 169.424194,104.776367 160.495560,100.137253 
	C159.478851,99.609009 158.389008,99.179680 157.287521,98.862946 
	C146.785904,95.843269 137.583084,90.295311 128.624893,84.251129 
	C127.817863,83.706619 126.849579,83.397354 125.947914,82.997505 
	C120.224525,80.459450 114.504501,77.913681 108.772560,75.395042 
	C99.347641,71.253700 89.844078,67.282616 80.510551,62.945213 
	C74.661331,60.227013 69.095901,56.904171 63.337646,53.981678 
	C60.385006,52.483120 57.225216,51.393291 54.269588,49.899948 
	C46.717472,46.084217 39.228817,42.142956 31.711601,38.258049 
	C29.504419,37.117371 27.317257,35.931671 25.067678,34.880550 
	C19.355225,32.211391 13.637855,29.549469 7.868044,27.008183 
	C5.922566,26.151304 3.813427,25.666012 1.389543,25.005447 
	C1.000000,23.933331 1.000000,22.866661 1.000000,21.399996 
z"/>
<path fill="#B296A5" opacity="1.000000" stroke="none" 
	d="
M310.000000,94.000000 
	C310.000000,95.066673 310.000000,96.133339 309.599915,97.594101 
	C306.167633,97.154625 302.952515,96.715904 300.138000,95.412300 
	C292.195343,91.733444 284.444183,87.643478 276.557709,83.839592 
	C274.178986,82.692268 271.595459,81.974144 269.121979,81.017433 
	C265.877106,79.762367 262.334930,78.949997 259.471130,77.096603 
	C250.698700,71.419273 242.154480,65.446770 231.530334,63.586605 
	C229.969604,63.313343 228.349060,62.385635 227.128204,61.330353 
	C219.727463,54.933350 211.459320,50.360531 201.800278,48.347885 
	C199.729965,47.916500 197.616104,47.012619 195.871109,45.817215 
	C187.442261,40.043053 178.382248,35.750530 168.546219,32.920712 
	C165.090378,31.926468 161.835236,30.097002 158.637939,28.371847 
	C152.828140,25.237078 147.280167,21.584988 141.348480,18.716213 
	C133.598923,14.968238 125.603783,11.721803 117.671158,8.361447 
	C114.331734,6.946829 112.696922,4.634740 113.000000,1.000000 
	C115.370560,1.000000 117.741112,1.000000 120.628510,1.344211 
	C122.290947,2.796819 123.254936,4.257609 124.611465,4.956710 
	C133.764343,9.673755 142.895020,14.457143 152.236130,18.779856 
	C163.970306,24.209991 175.898285,29.221418 187.744400,34.409466 
	C188.960724,34.942165 190.239670,35.353256 191.404053,35.979736 
	C201.297791,41.302940 210.280350,48.521561 221.777588,50.509312 
	C222.404099,50.617630 223.014252,51.021870 223.554214,51.399582 
	C232.545227,57.688782 241.734299,63.571831 252.526825,66.407394 
	C253.944397,66.779839 255.273239,67.614502 256.545990,68.393822 
	C265.875153,74.106300 275.158478,79.681633 285.800781,83.017654 
	C292.646149,85.163445 298.805054,89.469208 305.331390,92.685654 
	C306.757202,93.388351 308.437103,93.575455 310.000000,94.000000 
z"/>
<path fill="#36DF8A" opacity="1.000000" stroke="none" 
	d="
M1.000000,92.428467 
	C12.833974,96.465401 25.771561,98.279037 35.533569,107.666138 
	C38.216732,110.246246 42.549145,111.379753 46.325840,112.497948 
	C54.066444,114.789772 61.158527,117.878723 67.274666,123.455208 
	C69.946442,125.891243 74.053421,126.758621 77.517090,128.319641 
	C86.723175,132.468643 95.912582,136.655731 105.153343,140.726151 
	C108.768311,142.318497 112.599152,143.436157 116.163605,145.124771 
	C124.994621,149.308456 133.771744,153.612320 142.477600,158.050201 
	C145.390396,159.535019 148.021744,161.571930 150.890869,163.678238 
	C145.977905,164.000000 140.955811,164.000000 135.363037,163.669617 
	C130.974106,161.116074 127.317291,158.531509 123.306305,156.739853 
	C112.747437,152.023361 101.871422,147.996353 91.425591,143.052658 
	C79.173576,137.254089 67.212265,130.835510 55.184242,124.571823 
	C48.862129,121.279533 42.720901,117.639977 36.399757,114.345734 
	C29.228085,110.608238 22.008612,106.949402 14.689705,103.512360 
	C10.244015,101.424606 5.570930,99.821068 1.000000,98.000000 
	C1.000000,96.285645 1.000000,94.571281 1.000000,92.428467 
z"/>
<path fill="#E27CAF" opacity="1.000000" stroke="none" 
	d="
M218.000000,1.000000 
	C226.020905,1.000000 234.041809,1.000000 242.603699,1.336982 
	C250.023438,6.148674 256.373230,12.191472 263.904419,14.731926 
	C275.306000,18.577963 286.301239,22.775526 296.655212,28.937683 
	C300.681580,31.333988 305.527435,32.353390 310.000000,34.000000 
	C310.000000,38.356899 310.000000,42.713799 309.618744,47.530842 
	C307.605957,47.308643 305.914215,46.740993 304.354614,45.921703 
	C300.251007,43.765999 296.333832,41.208740 292.107880,39.342476 
	C284.265472,35.879112 276.077240,33.167217 268.355774,29.468559 
	C254.797195,22.973879 241.388748,16.145956 228.124130,9.070101 
	C224.379898,7.072777 221.354889,3.727200 218.000000,1.000000 
z"/>
<path fill="#AE99A4" opacity="1.000000" stroke="none" 
	d="
M112.536819,1.000000 
	C112.696922,4.634740 114.331734,6.946829 117.671158,8.361447 
	C125.603783,11.721803 133.598923,14.968238 141.348480,18.716213 
	C147.280167,21.584988 152.828140,25.237078 158.637939,28.371847 
	C161.835236,30.097002 165.090378,31.926468 168.546219,32.920712 
	C178.382248,35.750530 187.442261,40.043053 195.871109,45.817215 
	C197.616104,47.012619 199.729965,47.916500 201.800278,48.347885 
	C211.459320,50.360531 219.727463,54.933350 227.128204,61.330353 
	C228.349060,62.385635 229.969604,63.313343 231.530334,63.586605 
	C242.154480,65.446770 250.698700,71.419273 259.471130,77.096603 
	C262.334930,78.949997 265.877106,79.762367 269.121979,81.017433 
	C271.595459,81.974144 274.178986,82.692268 276.557709,83.839592 
	C284.444183,87.643478 292.195343,91.733444 300.138000,95.412300 
	C302.952515,96.715904 306.167633,97.154625 309.599915,97.994095 
	C310.000000,99.714355 310.000000,101.428719 310.000000,103.571541 
	C308.436768,103.580490 306.790131,103.349602 305.327484,102.702713 
	C302.158112,101.301025 299.219238,98.842560 295.944275,98.313629 
	C285.136902,96.568153 276.257019,90.600647 266.845551,85.847282 
	C251.746658,78.221405 236.897308,70.101730 221.805710,62.460938 
	C211.759109,57.374413 201.477203,52.752296 191.295700,47.932720 
	C182.197205,43.625813 173.114594,39.284218 163.978119,35.059269 
	C160.516098,33.458347 156.840195,32.313286 153.404480,30.663296 
	C140.734268,24.578463 127.998672,18.608458 115.548561,12.096478 
	C110.090492,9.241656 105.260902,5.185270 100.072968,1.337244 
	C104.024544,1.000000 108.049088,1.000000 112.536819,1.000000 
z"/>
<path fill="#B793A6" opacity="1.000000" stroke="none" 
	d="
M310.000000,93.571533 
	C308.437103,93.575455 306.757202,93.388351 305.331390,92.685654 
	C298.805054,89.469208 292.646149,85.163445 285.800781,83.017654 
	C275.158478,79.681633 265.875153,74.106300 256.545990,68.393822 
	C255.273239,67.614502 253.944397,66.779839 252.526825,66.407394 
	C241.734299,63.571831 232.545227,57.688782 223.554214,51.399582 
	C223.014252,51.021870 222.404099,50.617630 221.777588,50.509312 
	C210.280350,48.521561 201.297791,41.302940 191.404053,35.979736 
	C190.239670,35.353256 188.960724,34.942165 187.744400,34.409466 
	C175.898285,29.221418 163.970306,24.209991 152.236130,18.779856 
	C142.895020,14.457143 133.764343,9.673755 124.611465,4.956710 
	C123.254936,4.257609 122.290947,2.796819 121.072678,1.344211 
	C126.354927,1.000000 131.709854,1.000000 137.532394,1.000002 
	C141.971100,4.319248 145.528320,8.409575 149.994339,10.806758 
	C161.375763,16.915840 173.239655,22.117783 184.766876,27.965822 
	C196.860168,34.101044 208.673935,40.791691 220.813721,46.829723 
	C236.379898,54.571957 252.178452,61.845684 267.809662,69.459351 
	C271.374237,71.195602 274.478699,73.946106 278.118256,75.444336 
	C285.436707,78.457008 293.014191,80.833847 300.409454,83.669556 
	C303.458862,84.838852 306.314117,86.514542 309.628845,87.979950 
	C310.000000,89.714355 310.000000,91.428719 310.000000,93.571533 
z"/>
<path fill="#2FE388" opacity="1.000000" stroke="none" 
	d="
M1.000000,98.444168 
	C5.570930,99.821068 10.244015,101.424606 14.689705,103.512360 
	C22.008612,106.949402 29.228085,110.608238 36.399757,114.345734 
	C42.720901,117.639977 48.862129,121.279533 55.184242,124.571823 
	C67.212265,130.835510 79.173576,137.254089 91.425591,143.052658 
	C101.871422,147.996353 112.747437,152.023361 123.306305,156.739853 
	C127.317291,158.531509 130.974106,161.116074 134.896179,163.669617 
	C129.977905,164.000000 124.955818,164.000000 119.382095,163.646500 
	C117.362152,162.405243 115.977066,161.311279 114.406342,160.677322 
	C111.957497,159.688950 109.217995,159.336594 106.887924,158.151749 
	C91.538918,150.346802 76.276505,142.371811 60.966194,134.490479 
	C48.312210,127.976555 35.727592,121.316322 22.924145,115.108879 
	C15.815060,111.662201 8.320705,109.010185 1.000000,106.000000 
	C1.000000,103.629440 1.000000,101.258888 1.000000,98.444168 
z"/>
<path fill="#54CD90" opacity="1.000000" stroke="none" 
	d="
M1.000000,57.416668 
	C2.128904,57.243320 3.367660,57.265533 4.370025,57.763546 
	C16.843895,63.960949 29.275394,70.243538 41.734474,76.470848 
	C50.624542,80.914276 59.451527,85.497780 68.465775,89.675453 
	C80.180916,95.104851 92.218262,99.856758 103.817200,105.514709 
	C118.237816,112.549088 132.296555,120.321396 146.621155,127.558113 
	C154.449982,131.513199 162.508926,135.012161 170.457108,138.731781 
	C186.328323,146.159286 202.199982,153.585938 218.053467,161.051163 
	C219.363861,161.668228 220.537598,162.575516 221.887421,163.673981 
	C218.969406,164.000000 215.938812,164.000000 212.454102,164.000000 
	C211.103317,163.110153 210.362946,161.880035 209.284973,161.384918 
	C201.485825,157.802704 193.478256,154.650391 185.803497,150.826431 
	C172.172211,144.034592 158.821838,136.678421 145.182831,129.902802 
	C130.822418,122.768806 116.332291,115.884529 101.764740,109.182640 
	C91.106712,104.279358 80.099152,100.127838 69.498146,95.111320 
	C61.880142,91.506386 54.783356,86.815514 47.258675,82.993774 
	C38.705597,78.649704 29.969749,74.658173 21.247522,70.656891 
	C14.799056,67.698669 8.245189,64.970200 1.369140,62.069687 
	C1.000000,60.611111 1.000000,59.222221 1.000000,57.416668 
z"/>
<path fill="#23E987" opacity="1.000000" stroke="none" 
	d="
M0.999999,124.000000 
	C1.000000,120.638710 1.000000,117.277428 1.397193,113.463760 
	C4.026308,113.598114 6.440731,113.820198 8.460411,114.831009 
	C21.182165,121.197968 33.780754,127.810699 46.490765,134.201553 
	C56.246704,139.107040 66.091171,143.837692 75.924759,148.587112 
	C84.971527,152.956497 94.070435,157.218079 103.105988,161.610229 
	C104.199501,162.141769 105.041458,163.190796 106.000000,164.000000 
	C98.979050,164.000000 91.958107,164.000000 84.357170,163.659317 
	C80.982063,162.108734 78.098564,161.066833 75.410782,159.652893 
	C70.289772,156.958862 65.344009,153.930420 60.212059,151.258698 
	C48.207245,145.008926 36.273750,138.594574 24.039103,132.824158 
	C16.622032,129.325943 8.696886,126.904953 0.999999,124.000000 
z"/>
<path fill="#D781AD" opacity="1.000000" stroke="none" 
	d="
M217.532394,1.000000 
	C221.354889,3.727200 224.379898,7.072777 228.124130,9.070101 
	C241.388748,16.145956 254.797195,22.973879 268.355774,29.468559 
	C276.077240,33.167217 284.265472,35.879112 292.107880,39.342476 
	C296.333832,41.208740 300.251007,43.765999 304.354614,45.921703 
	C305.914215,46.740993 307.605957,47.308643 309.618744,47.995491 
	C310.000000,50.041668 310.000000,52.083332 310.000000,54.562500 
	C308.567719,54.682621 307.088806,54.500145 305.711304,54.024223 
	C300.126862,52.094810 294.509949,50.234428 289.027313,48.042686 
	C283.862000,45.977818 278.771667,43.686417 273.793121,41.204292 
	C268.826904,38.728287 264.059418,35.856453 259.170502,33.221828 
	C252.399277,29.572836 245.616928,25.943220 238.796936,22.386587 
	C235.727341,20.785789 232.697800,18.774117 229.403168,18.000906 
	C219.117752,15.587040 210.778702,9.715364 202.444748,3.751919 
	C201.831711,3.313250 201.568527,2.385678 201.071350,1.342701 
	C206.354935,1.000000 211.709854,1.000000 217.532394,1.000000 
z"/>
<path fill="#29E787" opacity="1.000000" stroke="none" 
	d="
M106.463181,164.000000 
	C105.041458,163.190796 104.199501,162.141769 103.105988,161.610229 
	C94.070435,157.218079 84.971527,152.956497 75.924759,148.587112 
	C66.091171,143.837692 56.246704,139.107040 46.490765,134.201553 
	C33.780754,127.810699 21.182165,121.197968 8.460411,114.831009 
	C6.440731,113.820198 4.026308,113.598114 1.397193,113.005692 
	C1.000000,110.958336 1.000000,108.916664 1.000000,106.437500 
	C8.320705,109.010185 15.815060,111.662201 22.924145,115.108879 
	C35.727592,121.316322 48.312210,127.976555 60.966194,134.490479 
	C76.276505,142.371811 91.538918,150.346802 106.887924,158.151749 
	C109.217995,159.336594 111.957497,159.688950 114.406342,160.677322 
	C115.977066,161.311279 117.362152,162.405243 118.915230,163.646500 
	C114.975456,164.000000 110.950912,164.000000 106.463181,164.000000 
z"/>
<path fill="#F170B0" opacity="1.000000" stroke="none" 
	d="
M259.000000,0.999998 
	C275.902802,1.000000 292.805634,1.000000 310.000000,1.000000 
	C310.000000,9.351967 310.000000,17.707317 309.618530,26.526653 
	C307.990723,26.620464 306.587341,26.503044 305.522156,25.841267 
	C294.107117,18.749260 282.189117,12.856833 269.354553,8.636652 
	C265.484467,7.364105 262.428772,3.614766 259.000000,0.999998 
z"/>
<path fill="#1BEF86" opacity="1.000000" stroke="none" 
	d="
M0.999999,124.416664 
	C8.696886,126.904953 16.622032,129.325943 24.039103,132.824158 
	C36.273750,138.594574 48.207245,145.008926 60.212059,151.258698 
	C65.344009,153.930420 70.289772,156.958862 75.410782,159.652893 
	C78.098564,161.066833 80.982063,162.108734 83.888596,163.659317 
	C77.978844,164.000000 71.957695,164.000000 65.468269,164.000000 
	C63.938580,162.705124 63.103687,161.075699 61.774757,160.175919 
	C57.134918,157.034424 52.429310,153.957993 47.545986,151.218124 
	C43.512726,148.955200 39.356750,146.646439 34.962360,145.351852 
	C27.830404,143.250809 21.567446,140.055710 15.628872,135.503204 
	C11.679201,132.475403 6.431461,131.140915 1.382369,129.024246 
	C1.000000,127.611107 1.000000,126.222221 0.999999,124.416664 
z"/>
<path fill="#EB76B1" opacity="1.000000" stroke="none" 
	d="
M258.533142,0.999998 
	C262.428772,3.614766 265.484467,7.364105 269.354553,8.636652 
	C282.189117,12.856833 294.107117,18.749260 305.522156,25.841267 
	C306.587341,26.503044 307.990723,26.620464 309.618530,26.995319 
	C310.000000,29.041666 310.000000,31.083334 310.000000,33.562500 
	C305.527435,32.353390 300.681580,31.333988 296.655212,28.937683 
	C286.301239,22.775526 275.306000,18.577963 263.904419,14.731926 
	C256.373230,12.191472 250.023438,6.148674 243.072357,1.336982 
	C248.022095,1.000000 253.044189,1.000000 258.533142,0.999998 
z"/>
</svg>